# AST/ASF file generated using VICON BodyLanguage
# -----------------------------------------------
:version 1.10
:name VICON
:units
  mass 1.0
  length 0.45
  angle deg
:documentation
   .ast/.asf automatically generated from VICON data using
   VICON BodyBuilder and BodyLanguage model FoxedUp or BRILLIANT.MOD
:root
   order TX TY TZ RX RY RZ
   axis XYZ
   position 0 0 0  
   orientation 0 0 0 
:bonedata
  begin
     id 1 
     name lhipjoint
     direction 0.623415 -0.642378 0.445763 
     length 2.49859 
     axis 0 0 0  XYZ
  end
  begin
     id 2 
     name lfemur
     direction 0.34202 -0.939693 0  
     length 6.69689  
     axis 0 0 20  XYZ
    dof rx ry rz
    limits (-160.0 20.0)
           (-70.0 70.0)
           (-60.0 70.0)
  end
  begin
     id 3 
     name ltibia
     direction 0.34202 -0.939693 0   
     length 7.37574   
     axis 0 0 20   XYZ
    dof rx
    limits (-10.0 170.0)
  end
  begin
     id 4 
     name lfoot
     direction 0.084323 -0.231675 0.969132   
     length 2.09111   
     axis -90 7.62852e-016 20   XYZ
    dof rx rz
    limits (-45.0 90.0)
           (-70.0 20.0)
  end
  begin
     id 5 
     name ltoes
     direction 1.5357e-011 -4.21957e-011 1   
     length 1.04989   
     axis -90 7.62852e-016 20   XYZ
    dof rx
    limits (-90.0 20.0)
  end
  begin
     id 6 
     name rhipjoint
     direction -0.605402 -0.653903 0.45376   
     length 2.45455  
     axis 0 0 0  XYZ 
  end
  begin
     id 7 
     name rfemur
     direction -0.34202 -0.939693 0   
     length 6.64523   
     axis 0 0 -20   XYZ
    dof rx ry rz
    limits (-160.0 20.0)
           (-70.0 70.0)
           (-70.0 60.0)
  end
  begin
     id 8 
     name rtibia
     direction -0.34202 -0.939693 0   
     length 7.3339   
     axis 0 0 -20   XYZ
    dof rx
    limits (-10.0 170.0)
 end
 begin
     id 9 
     name rfoot
     direction -0.120854 -0.332043 0.93549   
     length 2.23135  
     axis -90 -7.62852e-016 -20   XYZ
    dof rx rz
    limits (-45.0 90.0)
           (-20.0 70.0)
  end
  begin
     id 10 
     name rtoes
     direction -1.53563e-011 -4.21914e-011 1   
     length 1.10614   
     axis -90 -7.62852e-016 -20   XYZ
    dof rx
    limits (-90.0 20.0)
  end
  begin
     id 11 
     name lowerback
     direction 0.0319682 0.998615 -0.0417941   
     length 2.02718   
     axis 0 0 0   XYZ
    dof rx ry rz
    limits (-20.0 45.0)
           (-30.0 30.0)
           (-30.0 30.0)
  end
  begin
     id 12 
     name upperback
     direction 7.63181e-005 0.995808 0.0914691   
     length 1.97539   
     axis 0 0 0   XYZ
    dof rx ry rz
    limits (-20.0 45.0)
           (-30.0 30.0)
           (-30.0 30.0)
  end
  begin
     id 13 
     name thorax
     direction -0.016423 0.993627 0.111514   
     length 2.00349   
     axis 0 0 0   XYZ
    dof rx ry rz
    limits (-20.0 45.0)
           (-30.0 30.0)
           (-30.0 30.0)
  end
  begin
     id 14 
     name lowerneck
     direction -0.174763 0.981668 -0.0760716   
     length 1.71436   
     axis 0 0 0   XYZ
    dof rx ry rz
    limits (-20.0 45.0)
           (-30.0 30.0)
           (-30.0 30.0)
  end
  begin
     id 15 
     name upperneck
     direction 0.345458 0.934587 -0.0848868   
     length 1.72805   
     axis 0 0 0   XYZ
    dof rx ry rz
    limits (-20.0 45.0)
           (-30.0 30.0)
           (-30.0 30.0)
  end
  begin
     id 16
     name head
     direction 0.13001 0.989848 -0.0574291  
     length 1.767  
     axis 0 0 0   XYZ
    dof rx ry rz
    limits (-20.0 45.0)
           (-30.0 30.0)
           (-30.0 30.0)
  end
  begin
     id 17 
     name lclavicle
     direction 0.952951 0.290122 0.0878234  
     length 3.54654  
     axis 0 0 0   XYZ
    dof ry rz
    limits (-20.0 10.0)
           (0.0 20.0)
  end
  begin
     id 18 
     name lhumerus
     direction 1 -4.48957e-011 -4.56525e-028   
     length 5.19807   
     axis 180 -30 -90   XYZ
    dof rx ry rz
    limits (-60.0 90.0)
           (-90.0 90.0)
           (-90.0 90.0)
  end
  begin
     id 19
     name lradius
     direction 1 -4.48979e-011 -2.0317e-027   
     length 3.0937   
     axis 180 -30 -90   XYZ
    dof rx
    limits (-10.0 170.0)
  end
  begin
     id 20
     name lwrist
     direction 1 -4.48953e-011 -3.05809e-027   
     length 1.54685   
     axis 8.48514e-016 90 90   XYZ
    dof ry
    limits (-180.0 0.0)
 end
  begin
     id 21 
     name lhand
     direction 1 -4.48952e-011 -6.11639e-027   
     length 0.672632   
     axis 3.9013e-015 90 90   XYZ
    dof rx rz
    limits (-90.0 90.0)
           (-45.0 45.0)
  end
  begin
     id 22 
     name lfingers
     direction 1 -4.48925e-011 -1.22426e-026   
     length 0.542293   
     axis 7.80276e-015 90 90   XYZ
    dof rx
    limits (0.0 90.0)
  end
  begin
     id 23
     name lthumb
     direction 0.707107 -6.3486e-011 0.707107   
     length 0.778628   
     axis -90 45 5.37419e-014   XYZ
    dof rx rz
    limits (-45.0 45.0)
           (-45.0 45.0)
  end
  begin
     id 24 
     name rclavicle
     direction -0.960732 0.273675 -0.0457849   
     length 3.52079  
     axis 0 0 0   XYZ 
    dof ry rz
    limits (-10.0 20.0)
           (-20.0 0.0)
  end
  begin
     id 25 
     name rhumerus
     direction -1 -4.48976e-011 -1.63613e-027  
     length 5.45222   
     axis 180 30 90   XYZ
    dof rx ry rz
    limits (-90.0 60.0)
           (-90.0 90.0)
           (-90.0 90.0)
  end
  begin
     id 26 
     name rradius
     direction -1 -4.48957e-011 -7.00033e-028   
     length 3.01284   
     axis 180 30 90   XYZ
    dof rx
    limits (-10.0 170.0)
  end
  begin
     id 27 
     name rwrist
     direction -1 -4.48983e-011 -3.05543e-027   
     length 1.50642   
     axis 8.48514e-016 -90 -90   XYZ
    dof ry
    limits (-180.0 0.0)
  end
  begin
     id 28
     name rhand
     direction -1 -4.48984e-011 -6.11072e-027   
     length 0.622296   
     axis 3.9013e-015 -90 -90   XYZ
    dof rx rz
    limits (-90.0 90.0)
           (-45.0 45.0)
  end
  begin
     id 29
     name rfingers
     direction -1 -4.48865e-011 -1.22637e-026   
     length 0.501711   
     axis 7.80276e-015 -90 -90   XYZ
    dof rx
    limits (0.0 90.0)
  end
  begin
     id 30
     name rthumb
     direction -0.707107 -6.34932e-011 0.707107   
     length 0.72036   
     axis -90 -45 -5.37419e-014   XYZ
    dof rx rz
    limits (-45.0 45.0)
           (-45.0 45.0)
  end
:hierarchy
  begin
    root lhipjoint rhipjoint lowerback
    lhipjoint lfemur
    lfemur ltibia
    ltibia lfoot
    lfoot ltoes
    rhipjoint rfemur
    rfemur rtibia
    rtibia rfoot
    rfoot rtoes
    lowerback upperback
    upperback thorax
    thorax lowerneck lclavicle rclavicle
    lowerneck upperneck
    upperneck head
    lclavicle lhumerus
    lhumerus lradius
    lradius lwrist
    lwrist lhand lthumb
    lhand lfingers
    rclavicle rhumerus
    rhumerus rradius
    rradius rwrist
    rwrist rhand rthumb
    rhand rfingers
  end

#!OML:ASF H:\Not Pregnant\Project 1\Capture day 1\Session 1\non-pregnant.ASF
:FULLY-SPECIFIED
:DEGREES
1
root 8.14198 15.7731 27.0209 134.072 -84.7352 -121.104
lowerback -6.63589 2.74787 4.00653
upperback -11.0948 3.04966 -0.149569
thorax -7.74576 0.955427 -2.35569
lowerneck 16.1419 -7.4227 -31.0221
upperneck 1.07517 -18.4215 39.5734
head 4.87746 -11.4359 20.0658
rclavicle -2.48481e-015 -1.59028e-014
rhumerus -42.2477 6.51146 -92.9896
rradius 26.2062
rwrist 21.2653
rhand -7.01699 -0.760498
rfingers 7.12502
rthumb 18.8545 -29.8667
lclavicle -2.48481e-015 -1.59028e-014
lhumerus -51.4282 -14.1362 96.6725
lradius 36.1094
lwrist 34.525
lhand -15.9266 -6.44516
lfingers 7.12502
lthumb 10.271 23.2841
rfemur -26.8907 -11.9479 28.6692
rtibia 33.8774
rfoot -22.7426 13.5897
rtoes -8.03487
lfemur -29.4533 8.99833 -19.1665
ltibia 37.559
lfoot -20.8098 -2.45108
ltoes -13.6382
2
root 8.14204 15.7729 27.0231 133.767 -84.7074 -120.768
lowerback -6.63575 2.75763 4.05358
upperback -11.0877 3.06294 -0.142926
thorax -7.73544 0.959267 -2.37459
lowerneck 16.1322 -7.40928 -31.0713
upperneck 1.06281 -18.4152 39.6293
head 4.8884 -11.4378 20.1129
rclavicle 1.49089e-015 0
rhumerus -42.2277 6.48453 -93.0264
rradius 26.1857
rwrist 21.3077
rhand -7.006 -0.712258
rfingers 7.12502
rthumb 18.8651 -29.8174
lclavicle 1.49089e-015 0
lhumerus -51.3979 -14.16 96.6938
lradius 36.1412
lwrist 34.5505
lhand -15.8974 -6.45331
lfingers 7.12502
lthumb 10.2992 23.2745
rfemur -26.9223 -11.9782 28.7259
rtibia 33.8727
rfoot -22.7758 13.5666
rtoes -8.20109
lfemur -29.4798 8.88243 -19.1145
ltibia 37.5572
lfoot -20.7874 -2.3473
ltoes -13.626
3
root 8.14264 15.7747 27.0239 134.064 -84.7917 -121.066
lowerback -6.5789 2.75976 3.93979
upperback -11.0837 3.07111 -0.17008
thorax -7.76606 0.971317 -2.34248
lowerneck 16.1663 -7.42491 -30.9881
upperneck 0.990648 -18.4027 39.6141
head 4.84408 -11.4303 20.0847
rclavicle 2.88238e-015 -3.97569e-015
rhumerus -42.1986 6.24729 -92.9371
rradius 26.1449
rwrist 21.5546
rhand -6.97295 -0.703296
rfingers 7.12502
rthumb 18.8968 -29.8054
lclavicle 2.88238e-015 -3.97569e-015
lhumerus -51.3804 -14.2226 96.7332
lradius 36.1724
lwrist 34.5829
lhand -15.9058 -6.42762
lfingers 7.12502
lthumb 10.2911 23.3006
rfemur -26.9356 -11.9002 28.601
rtibia 33.8981
rfoot -22.7014 13.5649
rtoes -7.811
lfemur -29.4812 8.94987 -19.2261
ltibia 37.5267
lfoot -20.7644 -2.48187
ltoes -13.5206
4
root 8.14331 15.7742 27.0282 133.882 -84.8048 -120.859
lowerback -6.55132 2.77766 3.98304
upperback -11.0807 3.09563 -0.198417
thorax -7.77346 0.979146 -2.39739
lowerneck 16.184 -7.43371 -30.9713
upperneck 0.950858 -18.4101 39.6403
head 4.83529 -11.4374 20.0948
rclavicle -9.74045e-015 -5.56597e-015
rhumerus -42.171 6.18358 -92.9267
rradius 26.1245
rwrist 21.602
rhand -6.94551 -0.65493
rfingers 7.12502
rthumb 18.9232 -29.7544
lclavicle -9.74045e-015 -5.56597e-015
lhumerus -51.3461 -14.2512 96.742
lradius 36.17
lwrist 34.5706
lhand -15.9051 -6.45047
lfingers 7.12502
lthumb 10.2917 23.2777
rfemur -26.9775 -12.0095 28.6109
rtibia 33.9075
rfoot -22.7399 13.6295
rtoes -7.90686
lfemur -29.5105 8.97947 -19.2594
ltibia 37.5158
lfoot -20.7744 -2.483
ltoes -13.7366
5
root 8.1439 15.7744 27.0307 133.687 -84.8193 -120.646
lowerback -6.5336 2.78746 3.99845
upperback -11.0655 3.11027 -0.216478
thorax -7.76395 0.98571 -2.42543
lowerneck 16.1965 -7.44256 -30.9381
upperneck 0.899491 -18.4063 39.6598
head 4.81642 -11.4371 20.098
rclavicle 4.96962e-016 -5.96354e-015
rhumerus -42.121 6.05724 -92.8907
rradius 26.0881
rwrist 21.7356
rhand -6.93087 -0.615285
rfingers 7.12502
rthumb 18.9373 -29.7134
lclavicle 4.96962e-016 -5.96354e-015
lhumerus -51.3082 -14.2999 96.7618
lradius 36.1904
lwrist 34.5901
lhand -15.9148 -6.44981
lfingers 7.12502
lthumb 10.2824 23.2788
rfemur -27.0059 -12.0361 28.6067
rtibia 33.9207
rfoot -22.743 13.6411
rtoes -7.8782
lfemur -29.5295 8.99729 -19.2797
ltibia 37.498
lfoot -20.766 -2.522
ltoes -13.7539
6
root 8.14453 15.7747 27.0332 133.443 -84.828 -120.387
lowerback -6.51942 2.79536 4.02055
upperback -11.0468 3.12235 -0.23157
thorax -7.74865 0.990885 -2.45384
lowerneck 16.2054 -7.45096 -30.9065
upperneck 0.850546 -18.4017 39.6793
head 4.79872 -11.4361 20.1014
rclavicle 1.09332e-014 1.31198e-014
rhumerus -42.0648 5.94138 -92.8553
rradius 26.0495
rwrist 21.8676
rhand -6.92103 -0.5731
rfingers 7.12502
rthumb 18.9468 -29.6703
lclavicle 1.09332e-014 1.31198e-014
lhumerus -51.2672 -14.3446 96.7784
lradius 36.2088
lwrist 34.6109
lhand -15.9271 -6.44885
lfingers 7.12502
lthumb 10.2705 23.2804
rfemur -27.0243 -12.0535 28.6094
rtibia 33.9164
rfoot -22.7367 13.644
rtoes -7.86067
lfemur -29.5586 9.01716 -19.2916
ltibia 37.5008
lfoot -20.7679 -2.56472
ltoes -13.74
7
root 8.14515 15.775 27.0356 133.157 -84.8281 -120.082
lowerback -6.50748 2.80121 4.04944
upperback -11.0282 3.13165 -0.240729
thorax -7.7324 0.99438 -2.47968
lowerneck 16.2127 -7.455 -30.8875
upperneck 0.809317 -18.396 39.7026
head 4.78515 -11.4352 20.111
rclavicle -2.78299e-014 -8.34896e-015
rhumerus -42.0121 5.85521 -92.8322
rradius 26.0146
rwrist 21.9782
rhand -6.91461 -0.53341
rfingers 7.12502
rthumb 18.9529 -29.63
lclavicle -2.78299e-014 -8.34896e-015
lhumerus -51.2268 -14.3775 96.7918
lradius 36.2237
lwrist 34.6306
lhand -15.9388 -6.44698
lfingers 7.12502
lthumb 10.2592 23.2828
rfemur -27.0403 -12.066 28.6232
rtibia 33.906
rfoot -22.73 13.6365
rtoes -7.86896
lfemur -29.5891 9.02767 -19.291
ltibia 37.5054
lfoot -20.7693 -2.60029
ltoes -13.7072
8
root 8.14577 15.7754 27.0378 132.884 -84.8269 -119.791
lowerback -6.49317 2.80301 4.06794
upperback -11.0117 3.13609 -0.240658
thorax -7.72113 0.996455 -2.49018
lowerneck 16.2175 -7.45447 -30.8839
upperneck 0.77742 -18.3878 39.7231
head 4.77494 -11.4327 20.1234
rclavicle -1.30204e-014 -1.94809e-014
rhumerus -41.9753 5.83466 -92.8367
rradius 25.9947
rwrist 22.0331
rhand -6.90894 -0.509723
rfingers 7.12502
rthumb 18.9584 -29.6058
lclavicle -1.30204e-014 -1.94809e-014
lhumerus -51.1798 -14.3774 96.7972
lradius 36.2223
lwrist 34.6299
lhand -15.944 -6.44919
lfingers 7.12502
lthumb 10.2542 23.2809
rfemur -27.0545 -12.0649 28.6368
rtibia 33.8923
rfoot -22.7211 13.6129
rtoes -7.89781
lfemur -29.621 9.03376 -19.288
ltibia 37.5122
lfoot -20.7695 -2.63489
ltoes -13.6498
9
root 8.14635 15.7759 27.0402 132.618 -84.8244 -119.502
lowerback -6.47633 2.80354 4.08397
upperback -11.0003 3.13894 -0.2358
thorax -7.71744 0.997695 -2.49447
lowerneck 16.2235 -7.45037 -30.8932
upperneck 0.754592 -18.3797 39.742
head 4.76838 -11.4306 20.1386
rclavicle -1.19271e-015 -2.34566e-014
rhumerus -41.96 5.88387 -92.876
rradius 25.9933
rwrist 22.0179
rhand -6.9073 -0.51013
rfingers 7.12502
rthumb 18.96 -29.6061
lclavicle -1.19271e-015 -2.34566e-014
lhumerus -51.139 -14.3664 96.8064
lradius 36.2149
lwrist 34.6273
lhand -15.9476 -6.45071
lfingers 7.12502
lthumb 10.2508 23.2795
rfemur -27.0721 -12.061 28.6515
rtibia 33.877
rfoot -22.7113 13.5874
rtoes -7.93591
lfemur -29.6572 9.03897 -19.2854
ltibia 37.5204
lfoot -20.7697 -2.66579
ltoes -13.6005
10
root 8.14687 15.7764 27.0425 132.417 -84.823 -119.276
lowerback -6.45805 2.80288 4.08619
upperback -10.9929 3.14051 -0.224887
thorax -7.72007 0.999284 -2.48487
lowerneck 16.2283 -7.44377 -30.9145
upperneck 0.739643 -18.3714 39.7569
head 4.76487 -11.4279 20.1545
rclavicle -1.15295e-014 -1.94809e-014
rhumerus -41.9637 5.99926 -92.9452
rradius 26.0108
rwrist 21.9356
rhand -6.90853 -0.532595
rfingers 7.12502
rthumb 18.9588 -29.6286
lclavicle -1.15295e-014 -1.94809e-014
lhumerus -51.0978 -14.3351 96.8164
lradius 36.1962
lwrist 34.6097
lhand -15.9474 -6.45496
lfingers 7.12502
lthumb 10.2509 23.2753
rfemur -27.0931 -12.0405 28.6606
rtibia 33.8625
rfoot -22.6989 13.548
rtoes -7.98608
lfemur -29.6956 9.04096 -19.2866
ltibia 37.5275
lfoot -20.7674 -2.69243
ltoes -13.5537
11
root 8.14743 15.777 27.0447 132.226 -84.8187 -119.057
lowerback -6.44176 2.80321 4.08244
upperback -10.9865 3.14349 -0.209446
thorax -7.72306 1.00218 -2.4671
lowerneck 16.2337 -7.43798 -30.9372
upperneck 0.726639 -18.3639 39.7665
head 4.76153 -11.4253 20.1674
rclavicle 1.98785e-016 -6.36111e-015
rhumerus -41.9772 6.15251 -93.0322
rradius 26.0409
rwrist 21.806
rhand -6.91607 -0.574962
rfingers 7.12502
rthumb 18.9515 -29.6717
lclavicle 1.98785e-016 -6.36111e-015
lhumerus -51.0572 -14.3023 96.8356
lradius 36.1725
lwrist 34.5876
lhand -15.949 -6.45913
lfingers 7.12502
lthumb 10.2493 23.2712
rfemur -27.1188 -12.0139 28.6724
rtibia 33.8496
rfoot -22.6856 13.505
rtoes -8.04242
lfemur -29.7372 9.04356 -19.2862
ltibia 37.5339
lfoot -20.7639 -2.71346
ltoes -13.5233
12
root 8.14802 15.7776 27.0471 132.035 -84.8166 -118.838
lowerback -6.42751 2.80387 4.08118
upperback -10.9784 3.14663 -0.198951
thorax -7.7225 1.00491 -2.45581
lowerneck 16.2379 -7.43429 -30.9483
upperneck 0.715746 -18.3567 39.7717
head 4.75694 -11.4221 20.1746
rclavicle -6.95746e-015 -1.39149e-014
rhumerus -41.9912 6.31048 -93.131
rradius 26.0761
rwrist 21.6576
rhand -6.92706 -0.626018
rfingers 7.12502
rthumb 18.941 -29.7238
lclavicle -6.95746e-015 -1.39149e-014
lhumerus -51.025 -14.2912 96.864
lradius 36.1569
lwrist 34.5804
lhand -15.9591 -6.46184
lfingers 7.12502
lthumb 10.2396 23.2689
rfemur -27.1457 -11.994 28.6822
rtibia 33.8384
rfoot -22.6718 13.4692
rtoes -8.08381
lfemur -29.778 9.04516 -19.2887
ltibia 37.5391
lfoot -20.7592 -2.73161
ltoes -13.5144
13
root 8.1487 15.7781 27.0494 131.849 -84.8154 -118.625
lowerback -6.41351 2.80533 4.08181
upperback -10.969 3.15066 -0.193155
thorax -7.72007 1.00784 -2.45049
lowerneck 16.243 -7.43344 -30.9436
upperneck 0.706133 -18.3501 39.7708
head 4.74983 -11.4185 20.1742
rclavicle 3.91606e-014 2.38542e-014
rhumerus -42.0031 6.45905 -93.2337
rradius 26.1113
rwrist 21.5045
rhand -6.94238 -0.68236
rfingers 7.12502
rthumb 18.9262 -29.7816
lclavicle 3.91606e-014 2.38542e-014
lhumerus -50.9898 -14.2767 96.8848
lradius 36.1337
lwrist 34.5589
lhand -15.9687 -6.46733
lfingers 7.12502
lthumb 10.2304 23.2639
rfemur -27.1725 -11.9789 28.6911
rtibia 33.8278
rfoot -22.6564 13.4403
rtoes -8.10783
lfemur -29.8184 9.04984 -19.2928
ltibia 37.5446
lfoot -20.7549 -2.75105
ltoes -13.5143
14
root 8.14922 15.7786 27.0524 131.717 -84.8111 -118.471
lowerback -6.39667 2.80604 4.08602
upperback -10.9581 3.15385 -0.187706
thorax -7.71743 1.01014 -2.44761
lowerneck 16.2366 -7.433 -30.9256
upperneck 0.714267 -18.3408 39.7575
head 4.74501 -11.4113 20.1633
rclavicle -2.71341e-014 -8.34896e-015
rhumerus -42.0112 6.59251 -93.3288
rradius 26.14
rwrist 21.3689
rhand -6.95484 -0.732574
rfingers 7.12502
rthumb 18.9143 -29.833
lclavicle -2.71341e-014 -8.34896e-015
lhumerus -50.9601 -14.2616 96.9097
lradius 36.1097
lwrist 34.5341
lhand -15.9902 -6.47298
lfingers 7.12502
lthumb 10.2097 23.2593
rfemur -27.1931 -11.9681 28.6956
rtibia 33.8167
rfoot -22.6419 13.4236
rtoes -8.11922
lfemur -29.849 9.02343 -19.2934
ltibia 37.5515
lfoot -20.7479 -2.72879
ltoes -13.5302
